<?xml version="1.0" encoding="utf-8"?>
<!-- Generator: Adobe Illustrator 24.0.0, SVG Export Plug-In . SVG Version: 6.00 Build 0)  -->
<svg version="1.1" id="Capa_1" xmlns="http://www.w3.org/2000/svg" xmlns:xlink="http://www.w3.org/1999/xlink" x="0px" y="0px"
	 viewBox="0 0 380.7 380.7" style="enable-background:new 0 0 380.7 380.7;" xml:space="preserve">
<style type="text/css">
	.st0{fill:#FFFFFF;}
</style>
<g>
	<path class="st0" d="M189.5,29.8c-88.7,0.5-160.2,72.7-159.7,161.4c0.3,63.9,38,118.7,92.2,144.3l4.5-97.1c0,0-9.5-3.1-11.5-4.1
		c-20.1-8.7-34.8-34.7-35-68.4c-0.2-36.8,28.2-68.7,55.8-69.1c0,0,0,0,0.1,0c0,0,0,0,0,0c27.6,0.1,56.3,31.7,56.5,68.5
		c0.2,33.7-14.3,59.8-34.2,68.8c-0.2,0.1-11.6,4.3-11.6,4.3l6.2,107.9c12.3,3,25.1,4.7,38.4,4.6c17.9-0.1,35-3.2,51-8.7l4.5-96.2
		c-13.1-2.8-24.3-11.1-31.4-21.5c-8.7-13,6-128.1,6-128.1l10-0.1l0.6,108l9.9-0.1l-0.6-108l10.9-0.1l0.6,108l9.9-0.1l-0.6-108
		l11.3-0.1l0.6,108l9.9-0.1l-0.6-108l7.7,0c0,0,16,115,7.3,128c-6.9,10.4-17.9,18.8-30.8,21.8c-0.2,0.1-0.4,0.2-0.4,0.2l4.8,82.7
		c47.7-28.1,79.6-79.9,79.3-139.2C350.4,100.8,278.2,29.4,189.5,29.8z"/>
	<path class="st0" d="M103.4,149.4c0.6-2.3,1.3-4.6,1.4-4.6c0.2-0.9-0.2-1.8-1.2-2.3c-0.9-0.5-2-0.2-2.5,0.6c0,0-1.1,1.8-2.7,4.3
		c-1.3,2.2-3.2,5.8-4.5,10.2c-1.1,3.9-2.4,9.1-3,14.8c-0.2,3-0.3,5.8-0.2,8.6c0.2,3.2,0.7,6,1.7,9.1c3.2,8.9,5.7,17.6,14.5,26.1
		c2.8,2.8,5.6,4.8,7.7,6.2l0.7,0.5c0.4,0.3,0.9,0.6,1.3,0.8c1.7,0.9,2.9,1.2,3.1,1.3c0.9,0.2,1.7-0.2,2.1-0.9
		c0.3-0.7,0.1-1.7-0.6-2.2c0,0-1-0.9-2.3-2.5c-0.9-1-1.8-2.4-3-4c-0.8-1.1-1.7-2.4-2.6-3.7c-4.3-6.5-6.8-15.6-10.3-24.9
		c-0.7-2-1.2-4.6-1.5-6.9c-0.3-2.6-0.4-5-0.4-7.3c-0.1-5.3,0.1-9.9,0.5-13.6C102.3,154.8,102.7,151.7,103.4,149.4z"/>
	<path class="st0" d="M189.4,0C84.4,0.6-0.5,86.4,0,191.4c0.5,104.9,86.4,189.9,191.4,189.4c105-0.5,189.9-86.4,189.4-191.4
		C380.2,84.4,294.3-0.5,189.4,0z M191.3,366.5C94.1,367,14.7,288.4,14.2,191.3C13.7,94.1,92.3,14.7,189.5,14.2
		c97.1-0.5,176.6,78.1,177.1,175.3C367.1,286.6,288.4,366,191.3,366.5z"/>
</g>
</svg>
